#!OML:ASF F:\VICON\USERDATA\INSTALL\rory3\rory3.ASF
:FULLY-SPECIFIED
:DEGREES
33
root 0.0159902 18.23 -16.45 -2.41479 -1.11647 -4.81531
lowerback 10.9807 -0.756977 2.6431
upperback 1.29513 -0.501419 3.63395
thorax -4.79768 -0.266821 2.38636
lowerneck -15.331 -2.21614 -0.790521
upperneck 20.2658 -2.37291 -2.2524
head 8.85536 -1.42086 -0.919147
rclavicle 1.69961e-014 -9.54166e-015
rhumerus -37.7863 -18.1405 -75.6602
rradius 23.0814
rwrist 7.81222
rhand -14.1423 26.6427
rfingers 7.12502
rthumb 11.9919 -2.9938
lclavicle 1.69961e-014 -9.54166e-015
lhumerus -30.6446 -1.17009 80.7884
lradius 32.7639
lwrist 3.21713
lhand -24.0616 30.6175
lfingers 7.12502
lthumb 2.41788 60.5836
rfemur -17.2159 5.92965 28.2128
rtibia 26.9434
rfoot -6.46306 -3.28854
rtoes 7.59062
lfemur -7.58986 -0.118423 -14.5465
ltibia 65.1667
lfoot 14.7553 -17.1662
ltoes -3.82878
34
root 0.000609538 18.2719 -16.2817 -2.45441 -1.41216 -4.67734
lowerback 10.845 -0.448444 2.71151
upperback 1.58704 -0.118848 3.33513
thorax -4.4246 -0.0797861 1.97061
lowerneck -16.0835 -2.4158 -0.437734
upperneck 20.2923 -2.74765 -2.1665
head 8.9933 -1.56097 -1.00578
rclavicle 1.4561e-014 1.66979e-014
rhumerus -37.0774 -18.9074 -75.9355
rradius 22.9049
rwrist 8.19443
rhand -14.4815 26.2847
rfingers 7.12502
rthumb 11.6648 -3.37059
lclavicle 1.4561e-014 1.66979e-014
lhumerus -30.1749 -1.16585 80.5491
lradius 32.8709
lwrist 0.810735
lhand -24.002 31.2013
lfingers 7.12502
lthumb 2.4754 61.1666
rfemur -16.5068 6.12009 28.2135
rtibia 26.8868
rfoot -6.9902 -3.23696
rtoes 7.44391
lfemur -8.67087 0.469669 -14.5009
ltibia 66.535
lfoot 14.56 -17.5293
ltoes -6.90989
35
root -0.0167701 18.3003 -16.1149 -2.56087 -1.74673 -4.73561
lowerback 10.8976 -0.315944 2.70454
upperback 1.46786 0.063202 3.31747
thorax -4.5813 0.00917643 1.93149
lowerneck -15.155 -2.48597 -0.583352
upperneck 19.9476 -2.84142 -2.08361
head 8.70857 -1.60494 -0.944519
rclavicle -6.36111e-015 3.02153e-014
rhumerus -37.1273 -18.5353 -76.0044
rradius 22.9312
rwrist 8.44169
rhand -14.8117 25.8512
rfingers 7.12502
rthumb 11.3463 -3.8219
lclavicle -6.36111e-015 3.02153e-014
lhumerus -30.9083 -0.810414 80.5856
lradius 33.1213
lwrist -0.797333
lhand -29.4273 17.1688
lfingers 7.12502
lthumb -2.76441 47.1306
rfemur -15.7382 6.4017 28.447
rtibia 26.7467
rfoot -7.38885 -3.22769
rtoes 7.49634
lfemur -9.58534 1.16504 -14.2154
ltibia 67.7781
lfoot 12.6591 -16.0803
ltoes 3.6944
36
root -0.032515 18.306 -15.9545 -2.64858 -1.85782 -4.92654
lowerback 10.9598 -0.23138 2.86059
upperback 1.55978 0.193305 3.32677
thorax -4.52087 0.0713245 1.83381
lowerneck -15.2217 -2.53122 -0.634688
upperneck 19.9153 -2.90645 -2.01109
head 8.71117 -1.6315 -0.919862
rclavicle -5.36719e-015 -4.6118e-014
rhumerus -36.7025 -18.4612 -76.1555
rradius 23.069
rwrist 8.56424
rhand -14.6236 25.7743
rfingers 7.12502
rthumb 11.5277 -3.88866
lclavicle -5.36719e-015 -4.6118e-014
lhumerus -31.0437 -0.758157 80.7284
lradius 33.0534
lwrist -1.42637
lhand -24.7075 29.1067
lfingers 7.12502
lthumb 1.79411 59.0789
rfemur -15.0218 6.62441 28.81
rtibia 26.6413
rfoot -7.68509 -3.3625
rtoes 7.55789
lfemur -10.6429 1.68512 -13.7796
ltibia 68.9519
lfoot 11.6971 -15.9462
ltoes -1.55841
37
root -0.0438787 18.314 -15.7925 -2.68247 -1.96478 -4.96948
lowerback 10.9495 -0.161365 2.86412
upperback 1.61348 0.283626 3.32812
thorax -4.45989 0.116332 1.81939
lowerneck -15.2549 -2.52925 -0.685014
upperneck 19.8947 -2.89365 -1.99723
head 8.71151 -1.6277 -0.905621
rclavicle 4.87022e-015 7.55382e-015
rhumerus -36.2876 -17.9556 -76.4194
rradius 23.3469
rwrist 8.34362
rhand -14.6529 25.4789
rfingers 7.12502
rthumb 11.4995 -4.18563
lclavicle 4.87022e-015 7.55382e-015
lhumerus -31.3107 -0.776539 81.1208
lradius 32.7502
lwrist 0.213822
lhand -23.938 30.6305
lfingers 7.12502
lthumb 2.53724 60.5951
rfemur -14.3842 6.81935 28.9856
rtibia 26.6496
rfoot -8.00073 -3.69169
rtoes 7.5244
lfemur -11.8717 2.08315 -13.576
ltibia 69.9817
lfoot 6.76354 -13.9154
ltoes -4.62517
38
root -0.0571014 18.3237 -15.6291 -2.77085 -2.12937 -5.02795
lowerback 10.9582 -0.0384043 2.87773
upperback 1.61916 0.446255 3.28054
thorax -4.45999 0.196124 1.73803
lowerneck -14.9995 -2.54088 -0.642626
upperneck 19.7908 -2.93235 -1.96077
head 8.62907 -1.63816 -0.899093
rclavicle -9.93923e-017 -3.65764e-014
rhumerus -35.9989 -17.6703 -76.6267
rradius 23.4406
rwrist 8.24395
rhand -15.0191 25.1039
rfingers 7.12502
rthumb 11.1463 -4.58008
lclavicle -9.93923e-017 -3.65764e-014
lhumerus -31.6662 -0.938271 81.3561
lradius 32.5875
lwrist 0.915945
lhand -23.2822 31.6915
lfingers 7.12502
lthumb 3.17059 61.6477
rfemur -13.6814 6.96466 29.2093
rtibia 26.6974
rfoot -8.46871 -4.13491
rtoes 7.67754
lfemur -12.9734 2.49168 -13.3257
ltibia 70.8805
lfoot 3.94251 -13.5661
ltoes -0.161572
39
root -0.0676467 18.3312 -15.4655 -2.766 -2.13089 -5.03754
lowerback 10.7519 0.0634753 3.00836
upperback 1.64725 0.57716 3.12313
thorax -4.31411 0.258903 1.4799
lowerneck -14.8475 -2.62 -0.613226
upperneck 19.7733 -3.08831 -1.79104
head 8.59639 -1.691 -0.862144
rclavicle -5.71506e-015 -1.63003e-014
rhumerus -35.6374 -17.6933 -76.8564
rradius 23.4163
rwrist 8.17883
rhand -15.4657 25.1378
rfingers 7.12502
rthumb 10.7156 -4.56894
lclavicle -5.71506e-015 -1.63003e-014
lhumerus -31.8346 -1.17611 81.4505
lradius 32.343
lwrist 0.882401
lhand -22.8174 33.1543
lfingers 7.12502
lthumb 3.61939 63.1033
rfemur -13.08 7.08135 29.3534
rtibia 26.7415
rfoot -9.04455 -4.38146
rtoes 7.72456
lfemur -14.0201 2.7504 -13.1458
ltibia 71.6228
lfoot 4.61734 -12.9301
ltoes -3.59452
40
root -0.0747869 18.3404 -15.307 -2.75448 -2.17731 -5.0997
lowerback 10.6452 0.127086 3.14556
upperback 1.62681 0.669544 3.0583
thorax -4.27412 0.302359 1.32182
lowerneck -14.6386 -2.63453 -0.630727
upperneck 19.7167 -3.11872 -1.73697
head 8.54024 -1.70065 -0.840235
rclavicle 2.93207e-015 1.63003e-014
rhumerus -35.2493 -17.4182 -77.0399
rradius 23.3971
rwrist 7.93452
rhand -15.6834 24.9981
rfingers 7.12502
rthumb 10.5056 -4.71936
lclavicle 2.93207e-015 1.63003e-014
lhumerus -32.1854 -1.0209 81.5792
lradius 32.2399
lwrist 0.804962
lhand -23.0438 34.537
lfingers 7.12502
lthumb 3.40082 64.4896
rfemur -12.5476 7.21635 29.5367
rtibia 26.8432
rfoot -9.59061 -4.4844
rtoes 7.35448
lfemur -15.3264 3.1465 -12.9948
ltibia 72.2459
lfoot 3.2259 -12.257
ltoes -2.64214
41
root -0.0815497 18.3498 -15.1472 -2.7526 -2.24277 -5.08674
lowerback 10.5966 0.185419 3.13258
upperback 1.66106 0.740625 3.04429
thorax -4.21129 0.338293 1.30435
lowerneck -14.7512 -2.62324 -0.72726
upperneck 19.7428 -3.08729 -1.69408
head 8.5724 -1.68854 -0.808562
rclavicle 4.77083e-015 1.98785e-015
rhumerus -34.6892 -16.7381 -77.3461
rradius 23.557
rwrist 7.43512
rhand -15.8322 24.5226
rfingers 7.12502
rthumb 10.362 -5.20211
lclavicle 4.77083e-015 1.98785e-015
lhumerus -32.4852 -0.894484 81.805
lradius 32.2735
lwrist 0.749359
lhand -23.8149 32.2145
lfingers 7.12502
lthumb 2.65617 62.1777
rfemur -12.1046 7.24807 29.6415
rtibia 27.1254
rfoot -10.3293 -4.57254
rtoes 4.9569
lfemur -16.9407 3.62925 -13.0498
ltibia 72.6735
lfoot 2.98686 -11.9228
ltoes -7.83101
42
root -0.0882518 18.3376 -14.988 -2.74654 -2.26216 -5.20813
lowerback 10.588 0.242324 3.26289
upperback 1.63607 0.830902 3.02837
thorax -4.23057 0.380634 1.20192
lowerneck -14.7647 -2.65626 -0.62883
upperneck 19.8546 -3.12068 -1.85354
head 8.60794 -1.71381 -0.884053
rclavicle 5.98839e-015 2.10712e-014
rhumerus -34.3632 -16.0287 -77.7164
rradius 24.1504
rwrist 6.80771
rhand -15.6706 23.2014
rfingers 7.12502
rthumb 10.5179 -6.5154
lclavicle 5.98839e-015 2.10712e-014
lhumerus -32.7765 -1.06426 82.1363
lradius 31.9923
lwrist 1.50825
lhand -26.4627 23.8604
lfingers 7.12502
lthumb 0.0988222 53.8401
rfemur -11.742 7.27397 29.8934
rtibia 27.5359
rfoot -11.2421 -4.75233
rtoes 6.47059
lfemur -18.4096 3.91925 -12.8943
ltibia 73.0395
lfoot 2.89924 -11.3917
ltoes -12.8505
43
root -0.0952073 18.3123 -14.8388 -2.77501 -2.42735 -5.20363
lowerback 10.6723 0.392637 3.31042
upperback 1.58296 1.03721 2.90792
thorax -4.32929 0.479818 1.01997
lowerneck -14.4761 -2.7364 -0.400604
upperneck 19.6928 -3.24677 -2.05197
head 8.49132 -1.77644 -0.995177
rclavicle 5.04416e-015 -1.82882e-014
rhumerus -34.1038 -15.6484 -78.0455
rradius 24.6433
rwrist 6.31759
rhand -15.473 21.7768
rfingers 7.12502
rthumb 10.7085 -7.93026
lclavicle 5.04416e-015 -1.82882e-014
lhumerus -33.1011 -1.16947 82.2953
lradius 31.7435
lwrist 1.83467
lhand -24.9928 28.5882
lfingers 7.12502
lthumb 1.51856 58.5625
rfemur -11.3906 7.43549 30.0132
rtibia 27.9328
rfoot -12.0873 -4.95305
rtoes 7.25238
lfemur -19.3683 4.02706 -12.7659
ltibia 73.2865
lfoot -0.134767 -11.1449
ltoes -7.00322
44
root -0.103121 18.2881 -14.6952 -2.83881 -2.52658 -5.19951
lowerback 10.8041 0.533701 3.36254
upperback 1.66605 1.22727 2.77192
thorax -4.31021 0.572605 0.820707
lowerneck -14.7802 -2.81611 -0.36272
upperneck 19.787 -3.38255 -1.9582
head 8.57799 -1.8278 -0.992526
rclavicle 4.57205e-015 1.31198e-014
rhumerus -33.52 -15.4053 -78.3866
rradius 24.8674
rwrist 5.87981
rhand -15.4706 21.1073
rfingers 7.12502
rthumb 10.7109 -8.59971
lclavicle 4.57205e-015 1.31198e-014
lhumerus -33.1795 -1.07898 82.2242
lradius 31.85
lwrist 0.985115
lhand -23.5859 31.7642
lfingers 7.12502
lthumb 2.87731 61.7246
rfemur -10.9319 7.43393 30.135
rtibia 28.2114
rfoot -12.7233 -5.06157
rtoes 6.62971
lfemur -19.9405 3.94656 -12.5679
ltibia 73.3768
lfoot -1.57888 -10.8886
ltoes -5.53126
45
root -0.108309 18.2959 -14.5387 -2.76715 -2.47553 -5.13471
lowerback 10.7787 0.573641 3.34112
upperback 1.59881 1.27496 2.67617
thorax -4.3642 0.594928 0.726047
lowerneck -14.8806 -2.81988 -0.471104
upperneck 20.0202 -3.38372 -1.84738
head 8.67994 -1.82474 -0.943036
rclavicle -1.08586e-014 -3.97569e-014
rhumerus -33.0732 -15.0251 -78.6152
rradius 25.0621
rwrist 5.69849
rhand -15.6232 20.8836
rfingers 7.12502
rthumb 10.5636 -8.83092
lclavicle -1.08586e-014 -3.97569e-014
lhumerus -33.4827 -0.782733 82.1642
lradius 31.8304
lwrist 0.579652
lhand -22.6461 32.2121
lfingers 7.12502
lthumb 3.78484 62.1583
rfemur -10.4815 7.53455 30.1521
rtibia 28.3725
rfoot -13.2096 -5.31001
rtoes 6.42819
lfemur -20.6872 3.75454 -12.5561
ltibia 73.1614
lfoot -2.81018 -10.4985
ltoes -5.48343
46
root -0.109978 18.3136 -14.3708 -2.73815 -2.71981 -5.11703
lowerback 10.694 0.66612 3.40946
upperback 1.54798 1.39966 2.60385
thorax -4.36542 0.654621 0.595285
lowerneck -14.918 -2.79763 -0.612383
upperneck 20.2458 -3.33619 -1.76126
head 8.76874 -1.80401 -0.889282
rclavicle -5.1684e-015 1.0138e-014
rhumerus -32.6776 -14.6527 -78.7782
rradius 25.3848
rwrist 5.69011
rhand -15.1284 19.928
rfingers 7.12502
rthumb 11.0409 -9.76166
lclavicle -5.1684e-015 1.0138e-014
lhumerus -33.934 -0.453399 82.1824
lradius 31.6896
lwrist 0.534188
lhand -22.0391 31.4655
lfingers 7.12502
lthumb 4.371 61.4003
rfemur -9.91147 7.66187 30.2083
rtibia 28.4327
rfoot -13.6387 -5.33318
rtoes 6.66428
lfemur -21.6504 3.95608 -12.5658
ltibia 72.7563
lfoot -3.28761 -10.4388
ltoes -4.42942
47
root -0.111666 18.2974 -14.2093 -2.88465 -3.10175 -5.33588
lowerback 10.805 0.793398 3.66357
upperback 1.66605 1.59857 2.61121
thorax -4.29406 0.750474 0.43137
lowerneck -15.1928 -2.81971 -0.815783
upperneck 20.2851 -3.35473 -1.57363
head 8.84006 -1.80805 -0.800084
rclavicle -3.62782e-015 1.74931e-014
rhumerus -32.066 -14.058 -79.0521
rradius 25.7054
rwrist 5.19695
rhand -14.3149 19.0337
rfingers 7.12502
rthumb 11.8254 -10.6125
lclavicle -3.62782e-015 1.74931e-014
lhumerus -34.1656 -0.421619 82.3985
lradius 31.5177
lwrist 0.828393
lhand -21.771 30.8128
lfingers 7.12502
lthumb 4.62989 60.7422
rfemur -9.18736 7.74574 30.5562
rtibia 28.5108
rfoot -14.018 -5.29538
rtoes 5.25513
lfemur -22.2137 4.22393 -12.2007
ltibia 72.3054
lfoot -4.45467 -10.0198
ltoes -4.70626
